<?xml version="1.0" encoding="utf-8"?>
<!-- Generator: Adobe Illustrator 21.1.0, SVG Export Plug-In . SVG Version: 6.00 Build 0)  -->
<svg version="1.1" id="图层_1" xmlns="http://www.w3.org/2000/svg" xmlns:xlink="http://www.w3.org/1999/xlink" x="0px" y="0px"
	 viewBox="0 0 264 88" style="enable-background:new 0 0 264 88;" xml:space="preserve">
<style type="text/css">
	.st0{fill:#FFFFFF;}
	.st1{fill:none;stroke:#FFFFFF;stroke-width:1.5;}
</style>
<title>default-skin 2</title>
<g>
	<g>
		<path id="Shape_1_" class="st0" d="M13,29v-5h2v3h3v2H13z M13,15h5v2h-3v3h-2V15z M31,15v5h-2v-3h-3v-2H31z M31,29h-5v-2h3v-3h2
			V29z"/>
	</g>
	<g>
		<path class="st0" d="M62,24v5h-2v-3h-3v-2H62z M62,20h-5v-2h3v-3h2V20z M70,20v-5h2v3h3v2H70z M70,24h5v2h-3v3h-2V24z"/>
	</g>
	<path class="st0" d="M20.6,66l-5.7-5.7l1.4-1.4l5.7,5.7l5.7-5.7l1.4,1.4L23.4,66l5.7,5.7l-1.4,1.4L22,67.4l-5.7,5.7l-1.4-1.4
		L20.6,66z"/>
	<path class="st0" d="M111.8,65l-1.8-1.5l3-3.5h-10v-2h10l-3-3.5l1.8-1.5l5.2,6L111.8,65z"/>
	<path class="st0" d="M152.2,65l1.8-1.5l-3-3.5h10v-2h-10l3-3.5l-1.8-1.5l-5.2,6L152.2,65z"/>
	<g>
		<path id="Rectangle-11" class="st0" d="M161,28.5l-3.2-3.2l-1.4,1.4l3.2,3.2L161,28.5z"/>
		<path id="Oval-1" class="st1" d="M152.5,27c3,0,5.5-2.5,5.5-5.5s-2.5-5.5-5.5-5.5s-5.5,2.5-5.5,5.5S149.5,27,152.5,27z"/>
		<path class="st0" d="M150,21h5v1h-5V21z"/>
	</g>
	<g>
		<path class="st0" d="M117,28.5l-1.4,1.4l-3.2-3.2l1.4-1.4L117,28.5z"/>
		<path class="st1" d="M108.5,27c3,0,5.5-2.5,5.5-5.5s-2.5-5.5-5.5-5.5s-5.5,2.5-5.5,5.5S105.5,27,108.5,27z"/>
		<path class="st0" d="M106,21h5v1h-5V21z"/>
		<path class="st0" d="M109,19l-0.1,5h-1l0.1-5H109z"/>
	</g>
	<path class="st0" d="M69.9,67.3L69.9,67.3c0,2.6-2.3,4.9-4.9,4.9s-4.9-2.2-4.9-4.9c0-2.6,2.2-4.9,4.8-4.9v1.7l4.3-2.5h0.1L65,58.9
		v1.8c-1.8,0-3.5,0.7-4.7,1.9c-1.3,1.3-1.9,2.9-1.9,4.7s0.7,3.5,1.9,4.7s2.9,2,4.7,2c1.9,0,3.5-0.6,4.7-1.8c1.3-1.2,1.9-2.9,1.9-4.9
		l0,0C71.6,67.3,69.9,67.3,69.9,67.3z"/>
</g>
<g>
	<path class="st0" d="M249.7,27.7h-14c-0.4,0-0.7,0.3-0.7,0.7c0,0.2,0.1,0.3,0.2,0.5c0.1,0.1,0.3,0.2,0.5,0.2h14
		c0.2,0,0.3-0.1,0.5-0.2c0.1-0.1,0.2-0.3,0.2-0.5C250.3,28,250,27.7,249.7,27.7z"/>
	<path class="st0" d="M242.3,26.2c0.1,0.1,0.2,0.1,0.3,0.1s0.3,0,0.3-0.1l4.2-4.1c0.1-0.1,0.1-0.2,0.1-0.3c-0.1-0.1-0.5-0.1-0.6-0.1
		H245v-6c0-0.4-0.2-0.7-0.7-0.7H241c-0.5,0-0.7,0.3-0.7,0.7v6h-2c-0.2,0-0.2,0-0.3,0.1c-0.1,0.1-0.1,0.2,0.1,0.3L242.3,26.2z"/>
</g>
</svg>
